<svg clip-rule="evenodd" fill-rule="evenodd" height="297mm" image-rendering="optimizeQuality" shape-rendering="geometricPrecision" text-rendering="geometricPrecision" viewBox="213.5700000000004 11904.560000000003 20219.07 5811.410000000002" width="210mm" xmlns="http://www.w3.org/2000/svg"><linearGradient id="a" gradientUnits="userSpaceOnUse" x1="12720.51" x2="20432.64" y1="13785.41" y2="13785.41"><stop offset="0" stop-color="#d81c52"/><stop offset=".741" stop-color="#811d63"/><stop offset="1" stop-color="#291f75"/></linearGradient><path d="M5816.37 17487.48h-99.34c-9.93 0-19.87-3.31-26.49-9.93s-13.25-13.25-16.56-23.18l-89.41-228.48h-427.16l-89.41 228.48c-3.31 6.62-9.93 16.56-16.56 19.87-6.62 6.62-16.56 9.93-26.49 9.93h-99.34l380.81-950.36h129.14zm-622.54-354.31h354.32l-149.01-387.43c-9.93-23.18-19.87-52.98-29.8-89.41-3.31 16.56-9.93 36.42-13.25 49.67-3.31 16.56-9.93 29.8-13.25 39.74zm817.91 579.49v-897.38h69.53c16.56 0 26.49 6.62 33.11 23.18l9.93 79.47c29.8-36.42 62.92-62.92 99.34-82.78 36.42-19.87 79.47-33.11 125.83-33.11 39.74 0 72.85 6.62 105.96 23.18 29.8 13.25 59.6 36.42 79.47 66.23 23.18 29.8 39.74 66.23 49.67 109.27 13.25 43.05 16.56 92.72 16.56 149.01 0 49.67-6.62 96.03-19.87 139.08s-33.11 79.47-56.29 109.27-56.29 56.29-92.72 72.85c-36.42 16.56-76.16 26.49-122.52 26.49-43.05 0-76.16-6.62-105.96-19.87s-56.29-33.11-76.16-59.6v298.02h-115.88zm298.02-814.6c-39.74 0-72.85 9.93-102.65 26.49s-56.29 43.05-79.47 76.16v324.51c23.18 29.8 46.36 49.67 72.85 62.92s52.98 16.56 86.1 16.56c62.92 0 109.27-23.18 142.39-66.23 33.11-43.05 49.67-109.27 49.67-192.06 0-43.05-3.31-82.78-9.93-112.59-6.62-29.8-19.87-56.29-33.11-76.16-13.25-19.87-33.11-36.42-52.98-43.05-23.2-13.24-46.38-16.55-72.87-16.55zm642.4 589.42v-493.39c26.49-29.8 52.98-49.67 82.78-69.54 29.8-16.56 62.92-26.49 99.34-26.49 46.36 0 82.78 13.25 105.96 43.05 23.18 26.49 36.42 66.23 36.42 119.21v427.16h119.21v-427.16c0-36.42-3.31-72.85-13.25-102.65-9.93-29.8-23.17-59.6-43.04-79.47-19.87-23.18-43.05-39.74-69.54-52.98-26.49-13.25-59.6-16.56-96.03-16.56-46.36 0-89.41 9.93-125.83 29.8s-69.54 46.36-99.34 79.47l-9.93-72.85c-3.31-16.56-16.56-23.18-33.11-23.18h-72.85v672.2l119.21.01zm973.53-682.13c39.74 0 76.16 6.62 112.59 19.87 33.11 13.25 62.92 33.11 89.41 59.6 23.18 26.49 43.05 56.29 59.6 92.72 13.25 36.42 19.87 79.47 19.87 125.83 0 19.87-3.31 29.8-6.62 36.42s-9.93 9.93-23.18 9.93l-447.04.01c0 43.05 6.62 79.47 16.56 109.27 9.93 33.11 26.49 56.29 43.05 79.47 19.87 19.87 39.74 36.42 66.23 46.36 26.49 9.93 52.98 16.56 86.1 16.56 29.8 0 56.29-3.31 76.16-9.93s39.74-13.25 56.29-23.18c16.56-6.62 29.8-16.56 39.74-23.18 9.93-6.62 19.87-9.93 26.49-9.93 9.93 0 16.56 3.31 23.18 9.93l33.11 43.05c-13.25 16.56-33.11 33.11-52.98 46.36s-43.05 23.18-66.23 33.11-46.36 13.25-72.85 19.87c-23.18 3.31-49.67 6.62-72.85 6.62-46.36 0-89.41-6.62-129.14-23.18-39.74-16.56-72.85-39.74-102.65-69.54s-49.67-66.23-66.23-112.59c-16.56-43.05-23.18-96.03-23.18-152.32 0-46.36 6.62-89.41 19.87-132.45 13.25-39.74 36.42-76.16 62.92-105.96 26.49-29.8 59.6-52.98 99.34-69.54 39.72-16.56 86.08-23.18 132.44-23.18zm3.31 86.09c-56.29 0-102.65 16.56-135.77 49.67-33.11 33.11-52.98 79.47-59.6 135.77h364.25c0-26.49-3.31-52.98-9.93-76.16s-19.87-43.05-33.11-59.6c-13.25-16.56-33.11-29.8-52.98-39.74-23.19-6.63-46.37-9.94-72.86-9.94zm996.71-380.8h-119.2v973.53h119.2zm456.97 92.71c0 9.93-3.31 23.18-6.62 33.11s-9.93 19.87-19.87 26.49c-6.62 6.62-16.56 13.25-26.49 16.56s-19.87 6.62-33.11 6.62c-9.93 0-23.18-3.31-33.11-6.62s-19.87-9.93-26.49-16.56c-6.62-6.62-13.25-16.56-19.87-26.49-3.31-9.93-6.62-19.87-6.62-33.11 0-9.93 3.31-23.18 6.62-33.11s9.93-19.87 19.87-26.49c6.62-6.62 16.56-13.25 26.49-19.87 9.93-3.31 19.87-6.62 33.11-6.62 9.93 0 23.18 3.31 33.11 6.62s19.87 9.93 26.49 19.87c6.62 6.62 13.25 16.56 19.87 26.49 3.31 13.25 6.62 23.18 6.62 33.11zm-26.49 880.82h-119.21v-672.2h119.21zm870.88-668.89h-92.71c-6.62 0-13.25 3.31-19.87 6.62s-9.93 9.93-13.25 16.56l-175.5 420.54c-3.31 9.93-6.62 19.87-9.93 29.8s-6.62 19.87-9.93 29.8c-3.31-9.93-3.31-19.87-6.62-29.8s-6.62-19.87-9.93-29.8l-178.81-423.85c-3.31-6.62-6.62-13.25-13.25-16.56-6.62-6.62-13.25-6.62-23.18-6.62h-102.66l278.15 632.47-122.52 264.91 86.1-.01c13.25 0 19.87-3.31 26.49-6.62 6.62-6.62 9.93-13.25 13.25-19.87zm447.04-9.93c39.74 0 76.16 6.62 112.59 19.87 33.11 13.25 62.92 33.11 89.41 59.6 23.18 26.49 43.05 56.29 59.6 92.72 13.25 36.42 19.87 79.47 19.87 125.83 0 19.87-3.31 29.8-6.62 36.42s-9.93 9.93-23.18 9.93l-450.35.01c0 43.05 6.62 79.47 16.56 109.27 9.93 33.11 26.49 56.29 43.05 79.47 19.87 19.87 39.74 36.42 66.23 46.36 26.49 9.93 52.98 16.56 86.1 16.56 29.8 0 56.29-3.31 76.16-9.93s39.74-13.25 56.29-23.18c16.56-6.62 29.8-16.56 39.74-23.18 9.93-6.62 19.87-9.93 26.49-9.93 9.93 0 16.56 3.31 23.18 9.93l33.11 43.05c-13.25 16.56-33.11 33.11-52.98 46.36s-43.05 23.18-66.23 33.11-46.36 13.25-72.85 19.87c-23.18 3.31-49.67 6.62-72.85 6.62-46.36 0-89.41-6.62-129.14-23.18-39.74-16.56-72.85-39.74-102.65-69.54s-49.67-66.23-66.23-112.59c-16.56-43.05-23.18-96.03-23.18-152.32 0-46.36 6.62-89.41 23.18-132.45 13.25-39.74 36.42-76.16 62.92-105.96 26.49-29.8 59.6-52.98 99.34-69.54 39.72-16.56 82.77-23.18 132.44-23.18zm0 86.09c-56.29 0-102.65 16.56-135.77 49.67-33.11 33.11-52.98 79.47-59.6 135.77h364.25c0-26.49-3.31-52.98-9.93-76.16s-19.87-43.05-33.11-59.6c-13.25-16.56-33.11-29.8-52.98-39.74-19.88-6.63-43.06-9.94-72.86-9.94zm480.14 519.88c0 13.25 3.31 23.18 6.62 33.11s9.93 19.87 16.56 26.49c6.62 6.62 16.56 13.25 26.49 16.56s19.87 6.62 33.11 6.62c13.25 0 23.18-3.31 33.11-6.62s19.87-9.93 26.49-16.56c6.62-6.62 13.25-16.56 16.56-26.49s6.62-19.87 6.62-33.11c0-9.93-3.31-23.18-6.62-33.11s-9.93-19.87-16.56-26.49c-6.62-6.62-16.56-13.25-26.49-16.56s-19.87-6.62-33.11-6.62c-9.93 0-23.18 3.31-33.11 6.62s-19.87 9.93-26.49 16.56c-6.62 6.62-13.25 16.56-16.56 26.49-3.31 13.24-6.62 23.18-6.62 33.11zm1556.33 76.16h-99.34c-9.93 0-19.87-3.31-26.49-9.93s-13.25-13.25-16.56-23.18l-89.41-228.48h-427.16l-89.41 228.48c-3.31 6.62-9.93 16.56-16.56 19.87-6.62 6.62-16.56 9.93-26.49 9.93h-99.33l380.8-950.36h129.14zm-622.54-354.31h354.32l-149.01-387.43c-9.93-23.18-19.87-52.98-29.8-89.41-6.62 16.56-9.93 36.42-13.25 49.67-3.31 16.56-9.93 29.8-13.25 39.74zm814.6 579.49v-897.38h69.53c16.56 0 26.49 6.62 33.11 23.18l9.93 79.47c29.8-36.42 62.92-62.92 99.34-82.78 36.42-19.87 79.47-33.11 129.14-33.11 39.74 0 72.85 6.62 105.96 23.18 33.11 13.25 59.6 36.42 79.47 66.23 23.18 29.8 39.74 66.23 49.67 109.27 13.25 43.05 16.56 92.72 16.56 149.01 0 49.67-6.62 96.03-19.87 139.08s-33.11 79.47-56.29 109.27-56.29 56.29-89.41 72.85c-36.42 16.56-76.16 26.49-122.52 26.49-43.05 0-76.16-6.62-105.96-19.87s-56.29-33.11-76.16-59.6v298.02h-122.5zm301.33-814.6c-39.74 0-72.85 9.93-102.65 26.49s-56.29 43.05-79.47 76.16v324.51c19.87 29.8 46.36 49.67 72.85 62.92s52.98 16.56 86.1 16.56c62.92 0 109.27-23.18 142.39-66.23 33.11-43.05 49.67-109.27 49.67-192.06 0-43.05-3.31-82.78-9.93-112.59-6.62-29.8-19.87-56.29-33.11-76.16-13.25-19.87-33.11-36.42-52.98-43.05-23.2-13.24-46.38-16.55-72.87-16.55zm639.09 589.42v-493.39c26.49-29.8 52.98-49.67 82.78-69.54 29.8-16.56 62.92-26.49 99.34-26.49 46.36 0 82.78 13.25 105.96 43.05 23.18 26.49 36.42 66.23 36.42 119.21v427.16h119.22v-427.16c0-36.42-3.31-72.85-13.25-102.65-9.93-29.8-23.18-59.6-43.05-79.47-19.87-23.18-43.05-39.74-69.54-52.98-26.49-13.25-59.6-16.56-96.03-16.56-46.36 0-89.41 9.93-125.83 29.8s-69.54 46.36-99.34 79.47l-9.93-72.85c-3.31-16.56-16.56-23.18-33.11-23.18h-69.54v672.2l115.9.01zm983.47-682.13c49.67 0 92.72 6.62 132.45 23.18 39.74 16.56 72.85 39.74 99.34 69.54s49.67 66.23 62.92 109.27c13.25 43.05 23.18 89.41 23.18 142.39s-6.62 99.34-23.18 142.39c-13.25 43.05-36.42 79.47-62.92 109.27-26.49 29.8-59.6 52.98-99.34 69.54s-82.78 23.18-132.45 23.18-92.72-6.62-132.45-23.18c-39.74-16.56-72.85-39.74-99.34-69.54s-49.67-66.23-62.92-109.27c-13.25-43.05-23.18-89.41-23.18-142.39s6.62-99.34 23.18-142.39 36.42-79.47 62.92-109.27c26.49-29.8 62.92-52.98 99.34-69.54 39.73-16.56 82.78-23.18 132.45-23.18zm0 599.35c66.23 0 115.9-23.18 149.01-66.23s49.67-105.96 49.67-185.44c0-79.47-16.56-142.39-49.67-185.44s-82.78-66.23-149.01-66.23c-33.11 0-62.92 6.62-86.1 16.56-23.18 9.93-46.36 29.8-62.92 49.67-16.56 23.18-29.8 49.67-36.42 79.47-6.62 33.11-13.25 66.23-13.25 105.96 0 39.74 3.31 76.16 13.25 105.96 6.62 33.11 19.87 56.29 36.42 79.47 16.56 19.87 36.42 36.42 62.92 49.67 23.18 9.96 52.99 16.58 86.1 16.58zm907.31-894.06v976.85l119.21-.01v-321.2h33.11c13.25 0 23.18 0 29.8 3.31s13.25 9.93 19.87 19.87l221.86 274.84c6.62 6.62 13.25 13.25 19.87 16.56s16.56 6.62 23.18 6.62h105.96l-261.6-331.13c-6.62-9.93-13.25-16.56-16.56-23.18-6.62-6.62-13.25-13.25-23.18-19.87 6.62-3.31 13.25-9.93 19.87-16.56 6.62-6.62 13.25-13.25 16.56-19.87l248.35-261.6-105.96.01c-9.93 0-19.87 3.31-26.49 6.62s-13.25 9.93-19.87 16.56l-211.93 228.48c-6.62 6.62-13.25 13.25-19.87 16.56s-13.25 3.31-23.18 3.31h-29.79v-572.86h-119.21zm1006.64 294.71c39.74 0 76.16 6.62 112.59 19.87 33.11 13.25 62.92 33.11 89.41 59.6 23.18 26.49 43.05 56.29 59.6 92.72 13.25 36.42 19.87 79.47 19.87 125.83 0 19.87-3.31 29.8-6.62 36.42s-9.93 9.93-23.18 9.93l-447.04.01c0 43.05 6.62 79.47 16.56 109.27 9.93 33.11 26.49 56.29 43.05 79.47 19.87 19.87 39.74 36.42 66.23 46.36 26.49 9.93 52.98 16.56 86.1 16.56 29.8 0 56.29-3.31 76.16-9.93s39.74-13.25 56.29-23.18c16.56-6.62 29.8-16.56 39.74-23.18 9.93-6.62 19.87-9.93 26.49-9.93 9.93 0 16.56 3.31 23.18 9.93l33.11 43.05c-13.25 16.56-33.11 33.11-52.98 46.36s-43.05 23.18-66.23 33.11-46.36 13.25-72.85 19.87c-23.18 3.31-49.67 6.62-72.85 6.62-46.36 0-89.41-6.62-129.14-23.18-39.74-16.56-72.85-39.74-102.65-69.54s-49.67-66.23-66.23-112.59c-16.55-43.05-23.17-96.03-23.17-152.32 0-46.36 6.62-89.41 23.17-132.45 13.25-39.74 36.42-76.16 62.92-105.96 26.49-29.8 59.6-52.98 99.34-69.54 36.41-16.56 82.77-23.18 129.13-23.18zm3.31 86.09c-56.29 0-102.65 16.56-135.77 49.67-33.11 33.11-52.98 79.47-59.6 135.77h364.25c0-26.49-3.31-52.98-9.93-76.16s-19.87-43.05-33.11-59.6c-13.25-16.56-33.11-29.8-52.98-39.74-23.19-6.63-46.37-9.94-72.86-9.94zm996.72-380.8h-119.21v973.53h119.21zm456.96 92.71c0 9.93-3.31 23.18-6.62 33.11s-9.93 19.87-19.87 26.49c-6.62 6.62-16.56 13.25-26.49 16.56s-19.87 6.62-33.11 6.62c-9.93 0-23.18-3.31-33.11-6.62s-19.87-9.93-26.49-16.56c-6.62-6.62-13.25-16.56-19.87-26.49-3.31-9.93-6.62-19.87-6.62-33.11 0-9.93 3.31-23.18 6.62-33.11s9.93-19.87 19.87-26.49c6.62-6.62 16.56-13.25 26.49-19.87 9.93-3.31 19.87-6.62 33.11-6.62 13.25 0 23.18 3.31 33.11 6.62s19.87 9.93 26.49 19.87c6.62 6.62 13.25 16.56 19.87 26.49 3.31 13.25 6.62 23.18 6.62 33.11zm-26.49 880.82h-119.21v-672.2h119.21zm870.89-668.89h-92.72c-6.62 0-13.25 3.31-19.87 6.62s-9.93 9.93-13.25 16.56l-175.5 420.54c-3.31 9.93-6.62 19.87-9.93 29.8s-6.62 19.87-9.93 29.8c-3.31-9.93-3.31-19.87-6.62-29.8s-6.62-19.87-9.93-29.8l-178.81-423.85c-3.31-6.62-6.62-13.25-13.25-16.56-6.62-6.62-13.25-6.62-23.18-6.62h-102.66l278.15 632.47-122.52 264.91 86.1-.01c13.25 0 23.18-3.31 26.49-6.62 6.62-6.62 9.93-13.25 13.25-19.87zm447.03-9.93c39.74 0 76.16 6.62 112.59 19.87 33.11 13.25 62.92 33.11 89.41 59.6 23.18 26.49 43.05 56.29 59.6 92.72 13.25 36.42 19.87 79.47 19.87 125.83 0 19.87-3.31 29.8-6.62 36.42s-9.93 9.93-23.18 9.93l-447.04.01c0 43.05 6.62 79.47 16.56 109.27 9.93 33.11 26.49 56.29 43.05 79.47 19.87 19.87 39.74 36.42 66.23 46.36 26.49 9.93 52.98 16.56 86.1 16.56 29.8 0 56.29-3.31 76.16-9.93s39.74-13.25 56.29-23.18c16.56-6.62 29.8-16.56 39.74-23.18 9.93-6.62 19.87-9.93 26.49-9.93 9.93 0 16.56 3.31 23.18 9.93l33.11 43.05c-13.25 16.56-33.11 33.11-52.98 46.36s-43.05 23.18-66.23 33.11-46.36 13.25-72.85 19.87c-23.18 3.31-49.67 6.62-72.85 6.62-46.36 0-89.41-6.62-129.14-23.18-39.74-16.56-72.85-39.74-102.65-69.54s-49.67-66.23-66.23-112.59c-16.56-43.05-23.18-96.03-23.18-152.32 0-46.36 6.62-89.41 23.18-132.45 13.25-39.74 36.42-76.16 62.92-105.96 26.49-29.8 59.6-52.98 99.34-69.54 36.41-16.56 79.46-23.18 129.13-23.18zm0 86.09c-56.29 0-102.65 16.56-135.77 49.67-33.11 33.11-52.98 79.47-59.6 135.77h364.25c0-26.49-3.31-52.98-9.93-76.16s-19.87-43.05-33.11-59.6c-13.25-16.56-33.11-29.8-52.98-39.74-19.88-6.63-43.06-9.94-72.86-9.94zm480.15 519.88c0 13.25 3.31 23.18 6.62 33.11s9.93 19.87 16.56 26.49c6.62 6.62 16.56 13.25 26.49 16.56s19.87 6.62 33.11 6.62c9.93 0 23.18-3.31 33.11-6.62s19.87-9.93 26.49-16.56c6.62-6.62 13.25-16.56 16.56-26.49s6.62-19.87 6.62-33.11c0-9.93-3.31-23.18-6.62-33.11s-9.93-19.87-16.56-26.49c-6.62-6.62-16.56-13.25-26.49-16.56s-19.87-6.62-33.11-6.62c-9.93 0-23.18 3.31-33.11 6.62s-19.87 9.93-26.49 16.56c-6.62 6.62-13.25 16.56-16.56 26.49-3.31 13.24-6.62 23.18-6.62 33.11z" fill="#1c1b17"/><path d="M2495.09 14891.39v-579.49c0-36.42 9.93-56.29 46.36-76.15 211.93-105.96 317.88-337.76 261.6-569.55-52.98-218.55-258.29-380.81-486.77-380.81s-430.48 162.26-486.77 387.43c-52.98 221.86 56.29 453.65 261.6 559.62 39.74 19.86 49.67 43.04 49.67 86.09v1132.48c0 79.47 0 79.47-79.47 69.54-579.49-92.72-1013.27-400.67-1291.43-920.56-556.31-1049.69 89.41-2351.05 1255-2543.11 933.79-152.32 1817.92 463.59 2000.05 1390.77 188.75 976.84-463.59 1910.64-1440.43 2069.58-92.72 16.56-92.72 16.56-92.72-82.78v-543.06z" fill="#15afe5"/><path d="M10015.15 13676.13c43.05 26.49 86.1 49.67 122.52 79.47 281.46 211.93 377.49 496.69 344.38 821.2-46.36 476.83-377.49 791.41-920.56 897.38-125.83 23.18-251.66 36.42-380.81 36.42H7876.01c-52.98 0-69.54-9.93-69.54-62.92 3.31-1109.3 3.31-2218.59 0-3331.21 0-49.67 16.56-62.92 69.54-62.92 440.41 3.31 877.51-3.31 1317.92 3.31 291.4 3.31 569.55 59.6 804.66 235.11 443.72 334.45 463.59 990.09 43.05 1354.34-3.31 13.26-13.25 19.89-26.49 29.82zM8601.2 13785.4v1016.57c0 46.36 9.93 62.92 62.92 62.92 192.06-3.31 387.43 0 579.49 0 261.6-3.31 433.79-155.63 443.72-390.74 9.93-238.41-142.39-400.66-403.98-423.84-86.1-6.62-172.19-6.62-258.29-3.31-39.74 0-49.67-9.93-49.67-46.36 3.31-182.12 3.31-364.25 0-546.37 0-36.42 16.56-46.36 52.98-46.36 69.54 0 135.77 3.31 205.3-3.31 102.65-6.62 198.68-36.42 254.97-122.52 82.78-129.14 86.1-268.22 16.56-400.67-66.23-125.83-192.06-165.57-334.45-168.88-168.88-3.31-337.76 0-506.64 0-49.67 0-66.23 9.93-66.23 59.6 3.32 334.45 3.32 672.21 3.32 1013.27zm-2066.27 533.12c218.55 155.63 132.45 417.23-66.23 493.39-82.78 29.8-165.57 43.05-251.66 39.74-321.2-13.25-589.42-145.7-821.21-347.69-39.74-33.11-56.29-36.42-89.41 6.62-122.52 162.26-248.35 324.51-374.18 483.46-23.18 29.8-26.49 49.67 3.31 79.47 122.52 119.21 264.91 215.24 420.54 288.09 450.34 205.3 920.56 271.53 1400.7 109.27 685.44-231.79 841.07-894.06 639.08-1331.15-105.95-231.79-307.95-377.49-536.43-496.7-218.55-112.59-453.65-185.44-678.83-281.46-89.41-39.74-182.12-79.47-258.29-142.39-158.94-129.14-145.7-317.89 33.11-427.16 99.34-62.92 211.93-86.1 331.13-79.47 281.46 13.25 519.88 122.52 728.5 294.71 39.74 29.8 52.98 39.74 79.47-9.93 86.1-158.94 182.12-317.89 271.53-476.83 59.59-105.96 62.91-109.27-43.05-185.44-304.64-228.48-658.96-321.2-1049.7-327.82-337.76 3.31-655.65 82.78-920.56 298.02-341.07 278.15-456.97 741.74-274.84 1102.68 119.21 235.11 331.13 380.81 569.55 500.01 182.12 92.72 377.49 158.94 562.93 238.42 115.92 52.96 225.2 102.63 324.54 172.16zm5149.14-526.49V12119.8c0-49.67-13.25-62.92-66.23-62.92-235.11 3.31-473.52 3.31-708.63 0-46.36 0-56.29 13.25-56.29 52.98v3347.76c0 39.74 9.93 52.98 56.29 52.98 235.11-3.31 470.21-3.31 702.01 0 59.6 0 72.85-13.25 72.85-69.54v-1649.03z" fill="#322c62"/><path d="M18442.51 14315.21c-6.62-29.8-9.93-62.92-9.93-102.64 0-172.19 72.85-334.45 218.55-486.77s317.89-228.48 519.88-228.48c122.52 0 231.79 26.49 334.45 79.47 99.34 52.98 178.81 119.21 231.79 201.99l-1274.87 622.52c-6.62-29.8-13.24-56.29-19.87-86.09zm-261.59-890.74c-238.42 251.66-357.63 549.68-357.63 900.68 0 360.94 129.14 658.96 390.74 900.69 258.29 241.73 569.55 360.94 933.8 360.94 321.2 0 609.29-96.03 854.33-288.09 82.78-62.92 172.19-158.94 274.84-284.78l-456.97-268.22c-59.6 79.47-112.59 135.77-158.94 172.19-135.77 112.59-284.78 168.88-443.72 168.88-139.08 0-271.53-46.36-397.36-139.08-39.74-29.8-89.41-76.16-149.01-139.08l1761.64-867.56c-105.96-281.46-271.53-506.64-503.33-672.2-228.48-165.57-490.08-248.35-781.48-248.35-387.43 3.3-711.94 139.07-966.91 403.98zm-2963.65-92.72v2178.86h668.89v-2500.06zm76.16-1105.99c-69.54 72.85-105.96 162.26-105.96 268.22 0 102.65 36.42 188.75 112.59 258.29 76.16 69.54 168.88 102.65 281.46 102.65 109.27 0 198.68-39.74 268.22-115.9s105.96-162.26 105.96-258.29c0-102.65-36.42-188.75-115.9-258.29-76.16-69.54-168.88-105.96-271.53-105.96-115.9 0-205.3 36.43-274.84 109.28zm-2572.92-162.26v3447.11h2023.24l168.88-562.93h-1457V12063.5zm4616.01-79.47h-3.31c-241.73 0-433.79 72.85-572.86 221.86-139.08 149.01-211.93 344.38-211.93 589.42v307.96h-238.41l-132.45 513.26h370.86v1890.77h668.89v-1890.77h367.56l132.45-513.26h-500.01v-228.48c0-241.73 82.78-364.25 245.04-364.25 59.6 0 122.52 16.56 182.12 46.36 6.62 3.31 16.56 9.93 29.8 19.87l142.39-509.95c-59.6-19.87-112.59-33.11-152.32-43.05-122.51-26.49-231.79-39.74-327.82-39.74z" fill="url(#a)"/></svg>